<?xml version="1.0" encoding="UTF-8" standalone="no"?>
<svg xmlns="http://www.w3.org/2000/svg" width="1000" height="600" viewBox="0 0 1000 600">
  <rect width="1000" height="600" fill="#f8f9fa" />
  <text x="500" y="30" font-family="Arial" font-size="20" text-anchor="middle" font-weight="bold">Ablation Study: QW-GNN vs. Classical GNN - Last 200 Days</text>
  
  <!-- Grid lines -->
  <g stroke="#ddd" stroke-width="1">
    <!-- Vertical grid lines -->
    <line x1="100" y1="50" x2="100" y2="550" />
    <line x1="200" y1="50" x2="200" y2="550" />
    <line x1="300" y1="50" x2="300" y2="550" />
    <line x1="400" y1="50" x2="400" y2="550" />
    <line x1="500" y1="50" x2="500" y2="550" />
    <line x1="600" y1="50" x2="600" y2="550" />
    <line x1="700" y1="50" x2="700" y2="550" />
    <line x1="800" y1="50" x2="800" y2="550" />
    <line x1="900" y1="50" x2="900" y2="550" />
    
    <!-- Horizontal grid lines -->
    <line x1="100" y1="100" x2="900" y2="100" />
    <line x1="100" y1="150" x2="900" y2="150" />
    <line x1="100" y1="200" x2="900" y2="200" />
    <line x1="100" y1="250" x2="900" y2="250" />
    <line x1="100" y1="300" x2="900" y2="300" />
    <line x1="100" y1="350" x2="900" y2="350" />
    <line x1="100" y1="400" x2="900" y2="400" />
    <line x1="100" y1="450" x2="900" y2="450" />
    <line x1="100" y1="500" x2="900" y2="500" />
    <line x1="100" y1="550" x2="900" y2="550" />
  </g>
  
  <!-- Axes -->
  <line x1="100" y1="550" x2="900" y2="550" stroke="black" stroke-width="2" />
  <line x1="100" y1="50" x2="100" y2="550" stroke="black" stroke-width="2" />
  
  <!-- X-axis labels -->
  <text x="100" y="570" font-family="Arial" font-size="12" text-anchor="middle">100</text>
  <text x="200" y="570" font-family="Arial" font-size="12" text-anchor="middle">125</text>
  <text x="300" y="570" font-family="Arial" font-size="12" text-anchor="middle">150</text>
  <text x="400" y="570" font-family="Arial" font-size="12" text-anchor="middle">175</text>
  <text x="500" y="570" font-family="Arial" font-size="12" text-anchor="middle">200</text>
  <text x="600" y="570" font-family="Arial" font-size="12" text-anchor="middle">225</text>
  <text x="700" y="570" font-family="Arial" font-size="12" text-anchor="middle">250</text>
  <text x="800" y="570" font-family="Arial" font-size="12" text-anchor="middle">275</text>
  <text x="900" y="570" font-family="Arial" font-size="12" text-anchor="middle">300</text>
  
  <!-- Y-axis labels -->
  <text x="90" y="550" font-family="Arial" font-size="12" text-anchor="end">0.000</text>
  <text x="90" y="500" font-family="Arial" font-size="12" text-anchor="end">0.001</text>
  <text x="90" y="450" font-family="Arial" font-size="12" text-anchor="end">0.002</text>
  <text x="90" y="400" font-family="Arial" font-size="12" text-anchor="end">0.003</text>
  <text x="90" y="350" font-family="Arial" font-size="12" text-anchor="end">0.004</text>
  <text x="90" y="300" font-family="Arial" font-size="12" text-anchor="end">0.005</text>
  <text x="90" y="250" font-family="Arial" font-size="12" text-anchor="end">0.006</text>
  <text x="90" y="200" font-family="Arial" font-size="12" text-anchor="end">0.007</text>
  <text x="90" y="150" font-family="Arial" font-size="12" text-anchor="end">0.008</text>
  <text x="90" y="100" font-family="Arial" font-size="12" text-anchor="end">0.009</text>
  <text x="90" y="50" font-family="Arial" font-size="12" text-anchor="end">0.010</text>
  
  <!-- Axis titles -->
  <text x="500" y="595" font-family="Arial" font-size="14" text-anchor="middle">Time Steps (Days)</text>
  <text transform="rotate(-90 40 300)" x="40" y="300" font-family="Arial" font-size="14" text-anchor="middle">Realized Volatility</text>
  
  <!-- Data lines -->
  <!-- Actual Volatility (Blue) -->
  <polyline points="
    100,500 110,450 120,500 130,520 140,480 150,450 160,500 170,470 180,520 190,480 
    200,400 210,450 220,480 230,450 240,420 250,450 260,420 270,400 280,430 290,450 
    300,420 310,400 320,380 330,400 340,380 350,420 360,450 370,480 380,500 390,520 
    400,500 410,520 420,500 430,480 440,500 450,520 460,500 470,480 460,450 470,420 
    480,450 490,480 500,450 510,420 520,450 530,480 540,450 550,420 560,450 570,480 
    580,450 590,420 600,450 610,480 620,450 630,420 640,450 650,480 660,450 670,420 
    680,450 690,480 700,450 710,420 720,400 730,380 740,350 750,380 760,400 770,420 
    780,400 790,380 800,350 810,320 820,350 830,380 840,400 850,380 860,350 870,320 
    880,350 890,380 900,350
  " fill="none" stroke="blue" stroke-width="2" />
  
  <!-- Predicted Volatility (QW-GNN) (Orange) -->
  <polyline points="
    100,450 110,430 120,450 130,470 140,450 150,430 160,450 170,470 180,450 190,430 
    200,450 210,470 220,450 230,430 240,450 250,470 260,450 270,430 280,450 290,470 
    300,450 310,430 320,410 330,430 340,450 350,470 360,450 370,430 380,450 390,470 
    400,450 410,430 420,450 430,470 440,450 450,430 460,450 470,470 480,450 490,430 
    500,450 510,470 520,450 530,430 540,450 550,470 560,450 570,430 580,450 590,470 
    600,450 610,430 620,450 630,470 640,450 650,430 660,450 670,470 680,450 690,430 
    700,450 710,470 720,450 730,430 740,450 750,470 760,450 770,430 780,450 790,470 
    800,450 810,430 820,450 830,470 840,450 850,430 860,450 870,470 880,450 890,430 900,450
  " fill="none" stroke="orange" stroke-width="2" stroke-dasharray="5,5" />
  
  <!-- Predicted Volatility (Classical GNN) (Purple) -->
  <polyline points="
    100,550 110,550 120,550 130,550 140,550 150,550 160,550 170,550 180,550 190,550 
    200,550 210,550 220,550 230,550 240,550 250,550 260,550 270,550 280,550 290,550 
    300,550 310,550 320,550 330,550 340,550 350,550 360,550 370,550 380,550 390,550 
    400,550 410,550 420,550 430,550 440,550 450,550 460,550 470,550 480,550 490,550 
    500,550 510,550 520,550 530,550 540,550 550,550 560,550 570,550 580,550 590,550 
    600,550 610,550 620,550 630,550 640,550 650,550 660,550 670,550 680,550 690,550 
    700,550 710,550 720,550 730,550 740,550 750,550 760,550 770,550 780,550 790,550 
    800,550 810,550 820,550 830,550 840,550 850,550 860,550 870,550 880,550 890,550 900,550
  " fill="none" stroke="purple" stroke-width="2" stroke-dasharray="5,2" />
  
  <!-- Legend -->
  <rect x="650" y="70" width="200" height="80" fill="white" fill-opacity="0.7" stroke="#ccc" />
  <line x1="670" y1="90" x2="700" y2="90" stroke="blue" stroke-width="2" />
  <text x="710" y="95" font-family="Arial" font-size="12">Actual Volatility</text>
  
  <line x1="670" y1="110" x2="700" y2="110" stroke="orange" stroke-width="2" stroke-dasharray="5,5" />
  <text x="710" y="115" font-family="Arial" font-size="12">Predicted Volatility (QW-GNN)</text>
  
  <line x1="670" y1="130" x2="700" y2="130" stroke="purple" stroke-width="2" stroke-dasharray="5,2" />
  <text x="710" y="135" font-family="Arial" font-size="12">Predicted Volatility (Classical GNN)</text>
</svg>